<?xml version="1.0" standalone="no"?>
<!DOCTYPE svg PUBLIC "-//W3C//DTD SVG 20010904//EN"
 "http://www.w3.org/TR/2001/REC-SVG-20010904/DTD/svg10.dtd">
<svg version="1.0" xmlns="http://www.w3.org/2000/svg"
 width="1000.000000pt" height="1000.000000pt" viewBox="0 0 1000.000000 1000.000000"
 preserveAspectRatio="xMidYMid meet">
<metadata>
Created by potrace 1.11, written by Peter Selinger 2001-2013
</metadata>
<g transform="translate(0.000000,1000.000000) scale(0.100000,-0.100000)"
fill="#000000" stroke="none">
<path d="M4890 8243 c-135 -13 -215 -28 -318 -59 -543 -165 -891 -302 -1067
-420 -49 -34 -123 -78 -162 -99 -93 -48 -195 -116 -201 -134 -3 -8 10 -3 29
11 19 14 45 31 59 37 22 10 22 9 -4 -11 -79 -62 -81 -64 -66 -80 29 -28 47
-27 88 3 22 16 66 38 98 49 31 11 91 39 133 62 42 22 130 60 196 84 66 24 115
43 108 43 -22 1 -227 -76 -351 -133 -68 -31 -126 -56 -130 -56 -13 0 122 83
168 102 83 37 264 96 370 122 153 38 388 86 419 86 21 0 23 2 11 10 -11 7 1 9
40 5 40 -4 49 -3 35 4 -23 12 -13 12 255 15 l165 2 -160 -6 c-88 -3 -128 -7
-90 -8 82 -3 118 -17 64 -26 -19 -3 -52 -7 -74 -8 -22 -2 85 -7 237 -11 152
-4 316 -13 365 -19 48 -6 98 -11 111 -12 12 -1 22 -4 22 -7 0 -3 14 -4 30 -1
19 3 38 -2 48 -11 30 -26 80 -47 231 -98 244 -83 560 -254 748 -406 110 -88
419 -486 555 -713 175 -292 492 -958 472 -991 -5 -8 -3 -9 6 -4 9 6 10 2 5
-15 -4 -14 -3 -20 3 -16 5 3 13 -1 16 -10 9 -24 7 -31 -5 -14 -10 13 -10 13
-6 -1 51 -161 98 -377 90 -412 -5 -22 -5 -22 11 -2 10 11 15 15 12 9 -13 -26
-36 -194 -46 -333 -16 -223 14 -390 95 -537 41 -73 152 -181 220 -214 71 -34
157 -33 210 3 22 15 46 27 53 27 26 0 114 102 144 166 34 73 35 86 25 339 -10
231 -31 379 -73 504 -38 113 -52 142 -126 242 -26 37 -48 71 -48 77 0 10 -121
52 -149 52 -6 0 -11 16 -11 35 0 49 -23 158 -67 312 -19 70 -44 166 -54 213
-49 231 -226 664 -382 935 -53 93 -223 337 -319 456 -235 296 -604 582 -888
689 -140 53 -386 122 -495 139 -89 13 -242 25 -235 18 3 -3 91 -20 195 -37
258 -42 359 -70 472 -131 96 -52 120 -71 57 -44 -38 16 -78 21 -58 7 6 -4 21
-48 33 -98 25 -101 37 -114 109 -114 55 -1 193 -27 206 -40 8 -8 -20 -9 -99
-6 -106 5 -110 6 -164 43 l-55 38 -23 95 c-13 52 -28 99 -33 104 -5 5 -30 15
-57 22 -64 18 -136 41 -203 66 -79 29 -157 45 -306 62 -72 9 -144 20 -159 26
-16 6 -31 7 -34 3 -3 -4 -91 -8 -196 -8 -221 -1 -191 11 60 24 l160 8 -145 0
c-80 0 -161 -2 -180 -4z m-97 -40 c-7 -2 -19 -2 -25 0 -7 3 -2 5 12 5 14 0 19
-2 13 -5z m204 -59 c-3 -3 -12 -4 -19 -1 -8 3 -5 6 6 6 11 1 17 -2 13 -5z
m-380 -62 c38 -29 48 -42 37 -46 -8 -3 -13 -2 -10 3 3 5 -19 27 -49 50 -30 23
-55 44 -55 48 0 3 6 1 13 -4 6 -6 35 -28 64 -51z m310 42 c-3 -3 -12 -4 -19
-1 -8 3 -5 6 6 6 11 1 17 -2 13 -5z m-172 -54 c-27 -10 -57 -18 -65 -18 -8 0
8 8 35 18 28 10 57 18 65 18 8 0 -7 -8 -35 -18z m1000 -6 c-24 -9 -50 -12 -65
-8 -24 7 -23 8 10 14 19 4 49 8 65 8 28 1 28 0 -10 -14z m-1054 -61 c13 -16
12 -17 -3 -4 -17 13 -22 21 -14 21 2 0 10 -8 17 -17z m729 -259 c36 -13 52
-22 35 -19 -28 6 -116 43 -105 44 3 0 34 -11 70 -25z m1095 -88 c-2 -17 -5
-64 -7 -105 l-3 -73 87 -23 c48 -12 99 -32 114 -44 15 -11 25 -21 23 -21 -2 0
-45 11 -96 24 -73 19 -99 31 -129 58 l-36 35 13 101 c10 80 16 99 26 91 7 -7
11 -24 8 -43z m410 -356 c132 -153 246 -294 270 -335 25 -43 155 -377 160
-410 1 -11 6 -29 9 -40 9 -28 -38 64 -79 153 -19 40 -30 70 -25 67 22 -13 -74
142 -103 168 -18 15 -31 36 -29 45 3 23 -49 108 -155 254 -84 115 -201 251
-169 196 17 -29 4 -50 -17 -29 -8 8 -7 11 2 11 11 0 11 3 1 15 -6 8 -9 19 -5
25 4 7 -10 30 -31 53 -21 23 -8 13 29 -23 37 -36 101 -103 142 -150z m-121 31
c15 -16 17 -30 11 -85 -4 -36 -11 -66 -14 -66 -4 0 -17 10 -29 23 -20 21 -21
27 -10 85 6 34 15 62 18 62 4 0 15 -9 24 -19z m214 -308 c32 -18 41 -28 33
-36 -15 -15 -144 48 -171 85 l-21 28 58 -26 c32 -14 78 -37 101 -51z m370
-568 c-3 -3 -9 2 -12 12 -6 14 -5 15 5 6 7 -7 10 -15 7 -18z m30 -1120 c-3 -3
-9 2 -12 12 -6 14 -5 15 5 6 7 -7 10 -15 7 -18z"/>
<path d="M5243 8233 c9 -2 25 -2 35 0 9 3 1 5 -18 5 -19 0 -27 -2 -17 -5z"/>
<path d="M4028 7783 c7 -3 16 -2 19 1 4 3 -2 6 -13 5 -11 0 -14 -3 -6 -6z"/>
<path d="M3978 7773 c7 -3 16 -2 19 1 4 3 -2 6 -13 5 -11 0 -14 -3 -6 -6z"/>
<path d="M3928 7763 c6 -2 18 -2 25 0 6 3 1 5 -13 5 -14 0 -19 -2 -12 -5z"/>
<path d="M3888 7753 c7 -3 16 -2 19 1 4 3 -2 6 -13 5 -11 0 -14 -3 -6 -6z"/>
<path d="M3815 7740 c-25 -11 1 -11 35 0 20 6 21 8 5 8 -11 0 -29 -3 -40 -8z"/>
<path d="M7250 6970 c6 -11 13 -20 16 -20 2 0 0 9 -6 20 -6 11 -13 20 -16 20
-2 0 0 -9 6 -20z"/>
<path d="M7356 6787 c3 -10 9 -15 12 -12 3 3 0 11 -7 18 -10 9 -11 8 -5 -6z"/>
<path d="M7441 4274 c0 -11 3 -14 6 -6 3 7 2 16 -1 19 -3 4 -6 -2 -5 -13z"/>
<path d="M7482 4211 c-1 -45 -12 -77 -22 -61 -4 7 -10 -7 -14 -34 -4 -25 -4
-50 -1 -56 3 -5 2 -10 -4 -10 -6 0 -8 -16 -5 -37 5 -31 3 -35 -6 -23 -10 13
-11 12 -6 -3 3 -10 6 -35 6 -54 0 -20 3 -34 6 -30 11 11 61 316 54 327 -4 6
-7 -3 -8 -19z"/>
<path d="M6005 4216 c-16 -7 -51 -33 -77 -57 -37 -35 -52 -60 -72 -117 -14
-40 -26 -84 -26 -98 0 -67 112 -204 183 -224 57 -15 93 -11 89 13 -2 13 4 17
29 17 38 0 77 23 146 87 57 53 74 85 72 141 -1 33 -2 34 -9 12 -9 -29 -10 -28
-15 26 -2 23 -10 56 -19 73 -13 23 -13 31 -4 31 7 0 2 9 -12 20 -14 11 -31 18
-38 15 -7 -3 -11 -1 -8 4 10 15 -141 71 -189 71 -11 -1 -33 -7 -50 -14z"/>
<path d="M7586 4097 c3 -9 10 -17 16 -17 5 0 6 -5 2 -12 -4 -6 -3 -8 4 -4 5 3
13 0 15 -6 3 -7 6 -8 6 -2 1 6 -10 21 -25 35 -18 17 -23 19 -18 6z"/>
<path d="M6342 4040 c0 -14 2 -19 5 -12 2 6 2 18 0 25 -3 6 -5 1 -5 -13z"/>
<path d="M3617 3749 c-20 -17 -34 -35 -31 -41 4 -7 2 -8 -4 -4 -15 9 -57 -67
-72 -131 -33 -145 68 -274 225 -289 98 -9 132 7 174 81 18 32 42 94 53 139 21
79 21 82 3 119 -10 22 -33 49 -52 60 -18 12 -36 32 -39 44 -6 24 -34 53 -34
35 0 -6 -12 -7 -32 -2 -72 18 -81 19 -45 4 20 -9 37 -21 37 -26 0 -13 -40 1
-64 23 -30 29 -75 24 -119 -12z m329 -141 c16 -31 18 -48 5 -48 -5 0 -12 13
-16 29 -3 16 -15 37 -26 47 -10 9 -19 22 -19 27 0 15 40 -24 56 -55z m-26
-205 c-1 -15 -49 -67 -56 -61 -3 4 3 17 15 29 12 13 21 26 21 31 0 4 5 8 10 8
6 0 10 -3 10 -7z m-120 -93 c0 -5 -16 -10 -35 -10 -19 0 -35 5 -35 10 0 6 16
10 35 10 19 0 35 -4 35 -10z"/>
<path d="M8920 3776 c0 -3 9 -10 20 -16 11 -6 20 -8 20 -6 0 3 -9 10 -20 16
-11 6 -20 8 -20 6z"/>
<path d="M8995 3730 c17 -11 35 -20 40 -20 6 0 -5 9 -23 20 -42 26 -56 26 -17
0z"/>
<path d="M9720 3266 c0 -2 8 -10 18 -17 15 -13 16 -12 3 4 -13 16 -21 21 -21
13z"/>
<path d="M7214 3176 c-29 -51 -41 -84 -42 -116 l-2 -45 17 30 c21 39 75 185
71 195 -2 4 -21 -24 -44 -64z"/>
<path d="M9860 3125 c13 -14 26 -25 28 -25 3 0 -5 11 -18 25 -13 14 -26 25
-28 25 -3 0 5 -11 18 -25z"/>
<path d="M7766 2933 c-4 -9 -3 -20 2 -25 4 -4 9 4 10 17 2 29 -3 32 -12 8z"/>
<path d="M8775 2330 c27 -12 43 -12 25 0 -8 5 -22 9 -30 9 -10 0 -8 -3 5 -9z"/>
<path d="M8841 2306 c2 -2 15 -9 29 -15 24 -11 24 -11 6 3 -16 13 -49 24 -35
12z"/>
<path d="M8967 2230 c10 -11 22 -20 27 -20 5 0 1 9 -9 20 -10 11 -22 20 -26
20 -5 0 -1 -9 8 -20z"/>
<path d="M8960 2168 c24 -27 45 -48 47 -48 8 0 0 9 -44 50 l-48 45 45 -47z"/>
</g>
</svg>
